:SAMPLES-PER-SECOND 30
:FULLY-SPECIFIED
:DEGREES
63
root  3.54444 34.8306 -3.78043 90.288 81.6451 109.951
RightUpLeg  -10.6998 -0.252072 -3.54479
RightLeg  56.0347 -7.75458 -28.5717
RightFoot  -16.4667 0.255864 8.77781
RightToes  -1.74624e-010 -1.59028e-015 9.93923e-017
Spine  18.7687 -3.95963 4.07417
Spine1  27.1285 -3.31974 -2.61715
HEad  -8.58274 -5.31571 3.12745
LeftShoulder1  9.93923e-017 0 1.22299e-017
LeftArm  -32.5596 41.655 -62.249
LeftForeArm  -29.9482 -0.80805 2.27276
LeftHand  1.13528 9.74394 -10.2437
RightShoulder  1.98785e-016 -4.96962e-017 1.55301e-017
RightArm  -35.6499 -41.0129 40.2617
RightForeArm  -64.4991 5.02277 -16.0246
RightHand  4.28604 -24.9479 -11.3548
LeftUpLeg  -18.8972 0.313729 2.15574
LeftLeg  15.3904 12.377 6.18659
LeftFoot  -1.14528 0.632791 -5.90663
LeftToes  4.87492e-010 -9.21916e-011 1.24689e-011
64
root  4.09026 35.0145 -3.74621 81.9676 81.8069 99.672
RightUpLeg  -9.85674 0.0684529 -3.43654
RightLeg  51.836 -9.85663 -26.843
RightFoot  -23.7249 0.743306 7.9334
RightToes  -1.74624e-010 -1.59028e-015 9.93923e-017
Spine  17.7414 -3.92557 7.35647
Spine1  25.9828 -2.01458 -4.08113
HEad  -14.7091 -4.91085 0.446877
LeftShoulder1  9.93923e-017 0 1.22299e-017
LeftArm  -38.9963 38.1696 -74.1031
LeftForeArm  -33.1573 -1.35573 1.79045
LeftHand  1.22786 10.157 -7.50711
RightShoulder  1.98785e-016 -4.96962e-017 1.55301e-017
RightArm  -43.6957 -37.1026 59.3637
RightForeArm  -49.6052 4.38526 -10.6995
RightHand  4.54813 -25.094 -12.6886
LeftUpLeg  -20.3199 1.21388 2.78694
LeftLeg  16.1691 12.8123 6.48616
LeftFoot  -0.000720163 0.738884 -6.27424
LeftToes  4.87492e-010 -9.21916e-011 1.24689e-011
65
root  4.67131 35.1153 -3.6352 74.206 81.8666 90.0712
RightUpLeg  -9.81775 -0.287759 -3.38744
RightLeg  50.5264 -9.58159 -25.2865
RightFoot  -26.6099 0.930715 7.85494
RightToes  -1.74624e-010 -1.59028e-015 9.93923e-017
Spine  17.3904 -3.35195 9.14379
Spine1  23.6715 -1.22514 -3.91266
HEad  -20.7238 -4.12456 -0.84831
LeftShoulder1  9.93923e-017 0 1.22299e-017
LeftArm  -37.8992 34.4182 -80.4442
LeftForeArm  -29.3561 -4.76685 0.678089
LeftHand  1.14328 10.279 -10.913
RightShoulder  1.98785e-016 -4.96962e-017 1.55301e-017
RightArm  -45.2242 -29.662 73.4027
RightForeArm  -31.8335 5.9839 -6.14363
RightHand  4.6371 -24.3816 -14.1211
LeftUpLeg  -22.0268 3.22573 3.36977
LeftLeg  17.7133 10.8311 6.49265
LeftFoot  0.262047 0.960308 -8.0052
LeftToes  4.87492e-010 -9.21916e-011 1.24689e-011
66
root  5.37364 35.2979 -3.47256 73.6859 82.0739 89.2216
RightUpLeg  -8.23792 -1.44167 -3.45519
RightLeg  49.5606 -8.68097 -23.4519
RightFoot  -26.7109 0.909539 7.61965
RightToes  -1.74624e-010 -1.59028e-015 9.93923e-017
Spine  17.6837 -2.77491 9.7315
Spine1  21.3828 -1.026 -2.61173
HEad  -24.9223 -3.94984 0.246175
LeftShoulder1  9.93923e-017 0 1.22299e-017
LeftArm  -23.5468 30.6256 -81.3436
LeftForeArm  -18.9799 -12.0933 1.04116
LeftHand  0.995459 8.8924 -16.7799
RightShoulder  1.98785e-016 -4.96962e-017 1.55301e-017
RightArm  -35.5587 -21.6812 83.2641
RightForeArm  -19.5666 9.72531 -2.74772
RightHand  4.2938 -22.7721 -14.3339
LeftUpLeg  -21.5219 3.96258 3.65773
LeftLeg  18.1507 6.66682 5.3644
LeftFoot  0.486515 1.19473 -9.75458
LeftToes  4.87492e-010 -9.21916e-011 1.24689e-011
67
root  6.23261 35.6582 -3.31718 78.86 82.7987 94.8047
RightUpLeg  -4.85355 -3.06333 -3.19375
RightLeg  46.8398 -9.01087 -21.5881
RightFoot  -26.3202 0.837301 7.2278
RightToes  -1.74624e-010 -1.59028e-015 9.93923e-017
Spine  17.0002 -2.43345 11.1782
Spine1  19.7784 -0.727685 -1.72751
HEad  -26.1657 -5.09358 2.30796
LeftShoulder1  9.93923e-017 0 1.22299e-017
LeftArm  8.12679 26.927 -79.5934
LeftForeArm  -22.8687 -22.1884 10.0581
LeftHand  1.00027 7.08908 -18.9739
RightShoulder  1.98785e-016 -4.96962e-017 1.55301e-017
RightArm  -1.54635 -15.2953 90.8497
RightForeArm  -27.3368 17.1731 -8.03719
RightHand  4.32001 -22.0855 -15.5892
LeftUpLeg  -19.223 2.06179 4.31776
LeftLeg  16.5594 3.32884 3.6923
LeftFoot  2.83073 1.43062 -9.95795
LeftToes  4.87492e-010 -9.21916e-011 1.24689e-011
68
root  7.16064 36.0436 -3.19008 79.6363 83.4425 95.6079
RightUpLeg  -1.45013 -3.57013 -2.61604
RightLeg  43.6433 -10.0795 -20.23
RightFoot  -26.1792 0.80808 7.05222
RightToes  -1.74624e-010 -1.59028e-015 9.93923e-017
Spine  15.3646 -1.87078 13.4786
Spine1  18.5766 0.264589 -2.01087
HEad  -25.233 -7.01866 3.36444
LeftShoulder1  9.93923e-017 0 1.22299e-017
LeftArm  24.8638 23.5408 -75.9089
LeftForeArm  -28.5261 -27.7051 19.5352
LeftHand  1.00778 6.35882 -17.1889
RightShoulder  1.98785e-016 -4.96962e-017 1.55301e-017
RightArm  34.7865 -10.7005 96.0949
RightForeArm  -37.7219 22.6627 -23.2618
RightHand  4.48562 -21.9305 -16.9715
LeftUpLeg  -17.09 -0.641896 5.13184
LeftLeg  14.602 2.14707 2.84442
LeftFoot  5.45822 1.53864 -9.14489
LeftToes  4.87492e-010 -9.21916e-011 1.24689e-011
69
root  8.03518 36.2903 -3.0723 70.9014 83.321 86.4178
RightUpLeg  0.772088 -2.38978 -2.30207
RightLeg  41.4824 -10.8633 -19.3953
RightFoot  -26.4129 0.81713 7.00494
RightToes  -1.74624e-010 -1.59028e-015 9.93923e-017
Spine  14.3938 -0.978862 14.6849
Spine1  17.4029 1.48965 -2.59313
HEad  -24.0726 -8.4451 2.70976
LeftShoulder1  9.93923e-017 0 1.22299e-017
LeftArm  22.7304 20.434 -71.1084
LeftForeArm  -29.9007 -32.0194 20.6271
LeftHand  0.963028 5.54422 -13.2793
RightShoulder  1.98785e-016 -4.96962e-017 1.55301e-017
RightArm  36.7136 -4.74731 98.1267
RightForeArm  -19.436 29.1932 -27.7868
RightHand  4.09563 -21.2625 -15.4047
LeftUpLeg  -16.2461 -2.57946 5.42164
LeftLeg  14.7418 2.22671 2.96835
LeftFoot  5.81419 1.29169 -7.49598
LeftToes  4.87492e-010 -9.21916e-011 1.24689e-011
70
root  8.83642 36.4133 -2.98381 61.3652 82.8976 76.184
RightUpLeg  2.03059 -1.19525 -2.2056
RightLeg  40.083 -10.8792 -18.465
RightFoot  -26.7246 0.840624 7.03932
RightToes  -1.74624e-010 -1.59028e-015 9.93923e-017
Spine  14.5213 -0.421634 14.8632
Spine1  16.166 2.15329 -2.66122
HEad  -23.8554 -8.9967 1.33841
LeftShoulder1  9.93923e-017 0 1.22299e-017
LeftArm  19.1205 18.8283 -65.8454
LeftForeArm  -35.7927 -34.4056 21.3689
LeftHand  0.867655 5.00841 -8.66827
RightShoulder  1.98785e-016 -4.96962e-017 1.55301e-017
RightArm  39.2122 2.45396 99.8855
RightForeArm  -15.7634 35.7992 -33.4099
RightHand  3.35304 -20.1372 -11.7519
LeftUpLeg  -17.2997 -3.19483 5.15355
LeftLeg  18.4373 1.12984 3.42628
LeftFoot  5.05759 0.834456 -5.0445
LeftToes  4.87492e-010 -9.21916e-011 1.24689e-011
